<svg xmlns="http://www.w3.org/2000/svg" viewBox="0 0 100 100" width="100" height="100">
  <!-- Chocolate drop shape -->
  <path d="M50 10 C30 30, 20 50, 20 65 C20 82, 33 95, 50 95 C67 95, 80 82, 80 65 C80 50, 70 30, 50 10 Z" fill="#4A2C2A"/>
  <!-- Inner highlight -->
  <path d="M50 20 C35 35, 28 50, 28 62 C28 75, 38 85, 50 85 C62 85, 72 75, 72 62 C72 50, 65 35, 50 20 Z" fill="#6B4423"/>
  <!-- Gold accent -->
  <ellipse cx="40" cy="50" rx="8" ry="12" fill="#D4A853" opacity="0.6"/>
  <!-- Letter C -->
  <text x="50" y="70" font-family="Arial, sans-serif" font-size="30" font-weight="bold" fill="#D4A853" text-anchor="middle">C</text>
</svg>
